<svg width="26" height="26" viewBox="0 0 26 26" fill="none" xmlns="http://www.w3.org/2000/svg">
<g id="Frame">
<path id="Vector" d="M8.125 15.7083L10.1204 9.72212C10.2227 9.41524 10.5098 9.20825 10.8333 9.20825C11.1568 9.20825 11.444 9.41524 11.5463 9.72212L13.5417 15.7083M16.7917 9.20825V15.7083M9.20833 13.5416H12.4583" stroke="#7140C1" stroke-width="1.625" stroke-linecap="round" stroke-linejoin="round"/>
<path id="Vector_2" d="M22.762 15.2711C23.3274 15.1186 23.6101 15.0424 23.7217 14.8965C23.8334 14.7508 23.8334 14.5163 23.8334 14.0473V11.9525C23.8334 11.4835 23.8334 11.249 23.7217 11.1033C23.61 10.9574 23.3274 10.8812 22.762 10.7287C20.6491 10.1589 19.3266 7.9499 19.872 5.85079C20.0219 5.2735 20.0969 4.98487 20.0253 4.81558C19.9537 4.64629 19.7483 4.52963 19.3373 4.2963L17.4688 3.23547C17.0656 3.00652 16.864 2.89205 16.6831 2.91642C16.5021 2.9408 16.298 3.14447 15.8895 3.55181C14.3087 5.12887 11.6931 5.1288 10.1123 3.55171C9.70396 3.14436 9.49981 2.9407 9.31884 2.91631C9.13788 2.89194 8.93625 3.00641 8.53299 3.23536L6.66457 4.29621C6.25366 4.52951 6.04819 4.64617 5.97659 4.81543C5.90498 4.9847 5.97994 5.27337 6.12985 5.85072C6.6749 7.94989 5.35144 10.1589 3.23819 10.7287C2.67279 10.8812 2.3901 10.9574 2.27842 11.1031C2.16675 11.249 2.16675 11.4835 2.16675 11.9525V14.0473C2.16675 14.5163 2.16675 14.7508 2.27842 14.8965C2.39008 15.0424 2.67278 15.1186 3.23819 15.2711C5.3511 15.8409 6.6735 18.0499 6.12819 20.149C5.97823 20.7263 5.90324 21.0149 5.97484 21.1842C6.04645 21.3535 6.25191 21.4702 6.66285 21.7035L8.53128 22.7644C8.93456 22.9933 9.1362 23.1078 9.31718 23.0834C9.49816 23.059 9.70228 22.8553 10.1105 22.4479C11.6922 20.8696 14.3096 20.8695 15.8914 22.4478C16.2996 22.8553 16.5037 23.0589 16.6847 23.0833C16.8656 23.1077 17.0673 22.9932 17.4706 22.7643L19.339 21.7033C19.75 21.4701 19.9555 21.3534 20.027 21.1841C20.0986 21.0148 20.0237 20.7262 19.8736 20.1489C19.328 18.0499 20.6494 15.841 22.762 15.2711Z" stroke="#7140C1" stroke-width="1.625" stroke-linecap="round"/>
</g>
</svg>
