<svg width="18" height="18" viewBox="0 0 18 18" fill="none" xmlns="http://www.w3.org/2000/svg">
<g id="Frame">
<path id="Vector" d="M12.6763 4.59655C13.5 5.44311 13.5 6.80562 13.5 9.53063V10.7194C13.5 13.4443 13.5 14.8069 12.6763 15.6535C11.8525 16.5 10.5266 16.5 7.875 16.5C5.22335 16.5 3.89753 16.5 3.07376 15.6535C2.25 14.8069 2.25 13.4443 2.25 10.7194V9.53063C2.25 6.80562 2.25 5.44311 3.07376 4.59655C3.89753 3.75 5.22335 3.75 7.875 3.75C10.5266 3.75 11.8525 3.75 12.6763 4.59655Z" stroke="#747479" stroke-width="1.125" stroke-linecap="round" stroke-linejoin="round"/>
<path id="Vector_2" d="M5.625 4.125V7.77697C5.625 8.47845 5.625 8.82915 5.84237 8.9547C6.26329 9.19785 7.05285 8.38672 7.42781 8.14252C7.64528 8.00085 7.75402 7.93005 7.875 7.93005C7.99598 7.93005 8.10472 8.00085 8.32215 8.14252C8.69715 8.38672 9.48668 9.19785 9.90765 8.9547C10.125 8.82915 10.125 8.47845 10.125 7.77697V4.125" stroke="#747479" stroke-width="1.125" stroke-linecap="round" stroke-linejoin="round"/>
<path id="Vector_3" d="M6.75 1.5H8.25C11.7855 1.5 13.5533 1.5 14.6516 2.59835C15.75 3.6967 15.75 5.46446 15.75 9V13.5" stroke="#747479" stroke-width="1.125" stroke-linecap="round" stroke-linejoin="round"/>
</g>
</svg>
