<svg width="28" height="38" viewBox="0 0 28 38" fill="none" xmlns="http://www.w3.org/2000/svg">
<g id="Toshokan logo">
<path fill-rule="evenodd" clip-rule="evenodd" d="M0.00268333 1.48432C0.00885047 5.04624 1.70548 7.83262 4.84566 9.43854C7.3189 10.7034 8.04442 10.7751 18.3711 10.7751H27.7934L27.7178 8.63107C27.6524 6.7782 27.5535 6.31266 26.9901 5.20261C25.749 2.75688 22.8064 0.718404 19.8188 0.234626C18.9852 0.0996078 14.5653 0.00263191 9.1957 0.00175231L4.00351e-05 -7.59782e-06L0.00268333 1.48432Z" fill="#1E1133"/>
<path d="M17.3868 32.2744C18.3482 34.2157 19.9618 35.4074 21.9355 36.3783C23.063 36.9328 23.5535 37.0318 25.6047 37.1191L27.9725 37.2196V29.1759C27.9725 24.0533 27.8824 20.7089 27.7247 19.9667C27.1262 17.1537 25.3397 14.8674 22.7421 13.5907C21.4357 12.9486 21.0375 12.8633 18.9982 12.7878L16.7161 12.7034L16.7828 21.5918C16.7178 24.6198 16.7474 30.9957 17.3868 32.2744Z" fill="#1E1133"/>
</g>
</svg>
