<svg width="16" height="16" viewBox="0 0 16 16" fill="none" xmlns="http://www.w3.org/2000/svg">
<g id="vuesax/linear/profile-2user">
<g id="profile-2user">
<path id="Vector" d="M6.10634 7.24659C6.03967 7.23992 5.95967 7.23992 5.88634 7.24659C4.29967 7.19325 3.03967 5.89325 3.03967 4.29325C3.03967 2.65992 4.35967 1.33325 5.99967 1.33325C7.63301 1.33325 8.95967 2.65992 8.95967 4.29325C8.95301 5.89325 7.69301 7.19325 6.10634 7.24659Z" stroke="#2D2D2D" stroke-linecap="round" stroke-linejoin="round"/>
<path id="Vector_2" d="M10.9402 2.66675C12.2335 2.66675 13.2735 3.71341 13.2735 5.00008C13.2735 6.26008 12.2735 7.28675 11.0268 7.33341C10.9735 7.32675 10.9135 7.32675 10.8535 7.33341" stroke="#2D2D2D" stroke-linecap="round" stroke-linejoin="round"/>
<path id="Vector_3" d="M2.77311 9.70675C1.15978 10.7867 1.15978 12.5467 2.77311 13.6201C4.60644 14.8467 7.61311 14.8467 9.44644 13.6201C11.0598 12.5401 11.0598 10.7801 9.44644 9.70675C7.61978 8.48675 4.61311 8.48675 2.77311 9.70675Z" stroke="#2D2D2D" stroke-linecap="round" stroke-linejoin="round"/>
<path id="Vector_4" d="M12.2267 13.3333C12.7067 13.2333 13.16 13.0399 13.5334 12.7533C14.5734 11.9733 14.5734 10.6866 13.5334 9.90659C13.1667 9.62659 12.72 9.43992 12.2467 9.33325" stroke="#2D2D2D" stroke-linecap="round" stroke-linejoin="round"/>
</g>
</g>
</svg>
