<svg width="73" height="72" viewBox="0 0 73 72" fill="none" xmlns="http://www.w3.org/2000/svg">
<path d="M6.5 21C6.5 16.7996 6.5 14.6994 7.31744 13.0951C8.03651 11.6839 9.18386 10.5365 10.5951 9.81744C12.1994 9 14.2996 9 18.5 9C22.7004 9 24.8006 9 26.4049 9.81744C27.8161 10.5365 28.9635 11.6839 29.6826 13.0951C30.5 14.6994 30.5 16.7996 30.5 21V51C30.5 55.2003 30.5 57.3006 29.6826 58.905C28.9635 60.3162 27.8161 61.4634 26.4049 62.1825C24.8006 63 22.7004 63 18.5 63C14.2996 63 12.1994 63 10.5951 62.1825C9.18386 61.4634 8.03651 60.3162 7.31744 58.905C6.5 57.3006 6.5 55.2003 6.5 51V21Z" stroke="#929297" stroke-width="4.5" stroke-linecap="round" stroke-linejoin="round"/>
<path d="M18.5 51H18.5269" stroke="#929297" stroke-width="6" stroke-linecap="round" stroke-linejoin="round"/>
<path d="M6.5 21H30.5" stroke="#929297" stroke-width="4.5" stroke-linecap="round" stroke-linejoin="round"/>
<path d="M34.8458 24.8053C33.7811 20.8151 33.2489 18.8201 33.6155 17.088C33.938 15.5644 34.7324 14.1824 35.8853 13.1401C37.1957 11.9552 39.1826 11.4207 43.1561 10.3515C47.1296 9.28235 49.1165 8.74778 50.8412 9.11594C52.3586 9.43979 53.7347 10.2377 54.7727 11.3952C55.9526 12.7112 56.4851 14.7063 57.5498 18.6964L65.1542 47.1948C66.2189 51.1848 66.7511 53.1798 66.3845 54.912C66.062 56.4357 65.2676 57.8175 64.1147 58.86C62.8043 60.0447 60.8174 60.5793 56.8439 61.6485C52.8704 62.7177 50.8835 63.2523 49.1588 62.8842C47.6414 62.5602 46.2653 61.7622 45.2273 60.6048C44.0474 59.2887 43.5149 57.2937 42.4502 53.3037L34.8458 24.8053Z" stroke="#929297" stroke-width="4.5" stroke-linecap="round" stroke-linejoin="round"/>
<path d="M53.8438 50.0855L53.8698 50.0786" stroke="#929297" stroke-width="6" stroke-linecap="round" stroke-linejoin="round"/>
<path d="M36.5 24.0006L56.0003 18" stroke="#929297" stroke-width="4.5" stroke-linecap="round" stroke-linejoin="round"/>
</svg>
