<svg width="18" height="18" viewBox="0 0 18 18" fill="none" xmlns="http://www.w3.org/2000/svg">
<g id="vuesax/linear/Book" clip-path="url(#clip0_206_38)">
<path id="Vector" d="M1.5 5.25C1.5 4.1999 1.5 3.67485 1.70436 3.27376C1.88413 2.92096 2.17096 2.63413 2.52376 2.45436C2.92485 2.25 3.4499 2.25 4.5 2.25C5.5501 2.25 6.07515 2.25 6.47623 2.45436C6.82903 2.63413 7.11587 2.92096 7.29564 3.27376C7.5 3.67485 7.5 4.1999 7.5 5.25V12.75C7.5 13.8001 7.5 14.3251 7.29564 14.7262C7.11587 15.079 6.82903 15.3658 6.47623 15.5456C6.07515 15.75 5.5501 15.75 4.5 15.75C3.4499 15.75 2.92485 15.75 2.52376 15.5456C2.17096 15.3658 1.88413 15.079 1.70436 14.7262C1.5 14.3251 1.5 13.8001 1.5 12.75V5.25Z" stroke="#747479" stroke-width="1.5" stroke-linecap="round" stroke-linejoin="round"/>
<path id="Vector_2" d="M4.5 12.75H4.50673" stroke="#747479" stroke-width="2" stroke-linecap="round" stroke-linejoin="round"/>
<path id="Vector_3" d="M1.5 5.25H7.5" stroke="#747479" stroke-width="1.5" stroke-linecap="round" stroke-linejoin="round"/>
<path id="Vector_4" d="M8.58644 6.20132C8.32027 5.20378 8.18722 4.70502 8.27887 4.27199C8.35949 3.89109 8.55809 3.5456 8.84632 3.28504C9.17392 2.98881 9.67064 2.85517 10.664 2.58787C11.6574 2.32059 12.1541 2.18695 12.5853 2.27899C12.9646 2.35995 13.3087 2.55942 13.5682 2.84881C13.8631 3.17779 13.9963 3.67657 14.2624 4.6741L16.1635 11.7987C16.4297 12.7962 16.5628 13.2949 16.4711 13.728C16.3905 14.1089 16.1919 14.4544 15.9037 14.715C15.5761 15.0112 15.0793 15.1448 14.086 15.4121C13.0926 15.6794 12.5959 15.8131 12.1647 15.721C11.7853 15.64 11.4413 15.4405 11.1818 15.1512C10.8868 14.8222 10.7537 14.3234 10.4875 13.3259L8.58644 6.20132Z" stroke="#747479" stroke-width="1.5" stroke-linecap="round" stroke-linejoin="round"/>
<path id="Vector_5" d="M13.3359 12.5215L13.3425 12.5198" stroke="#747479" stroke-width="2" stroke-linecap="round" stroke-linejoin="round"/>
<path id="Vector_6" d="M9 6.00014L13.8751 4.5" stroke="#747479" stroke-width="1.5" stroke-linecap="round" stroke-linejoin="round"/>
</g>
<defs>
<clipPath id="clip0_206_38">
<rect width="18" height="18" fill="white"/>
</clipPath>
</defs>
</svg>
