<svg width="180" height="180" viewBox="0 0 180 180" fill="none" xmlns="http://www.w3.org/2000/svg">
<g id="revenues 1" clip-path="url(#clip0_206_759)">
<path id="Vector" d="M17.928 51.8399H144.36V46.1519H10.584V112.806H17.928V51.8399Z" fill="#CED9DF"/>
<path id="Vector_2" d="M30.4559 61.9919H156.888V57.0239H23.1119V123.678H30.4559V61.9919Z" fill="#70C8F2"/>
<path id="Vector_3" d="M148.914 67.1943H55.656C55.0686 72.3396 52.7807 77.1416 49.1549 80.8391C45.529 84.5367 40.7728 86.9183 35.64 87.6063V114.84C40.5299 115.499 45.0838 117.695 48.6432 121.112C52.2025 124.529 54.5829 128.989 55.44 133.848H149.13C150 128.907 152.444 124.378 156.096 120.937C159.748 117.496 164.413 115.326 169.398 114.75V87.7503C164.16 87.1505 159.281 84.7902 155.56 81.0558C151.839 77.3214 149.495 72.4342 148.914 67.1943ZM135.378 90.3423C137.51 90.3424 139.595 90.9736 141.369 92.1564C143.143 93.3392 144.527 95.0206 145.347 96.9888C146.167 98.957 146.386 101.124 145.977 103.216C145.567 105.309 144.547 107.233 143.046 108.747C141.545 110.261 139.629 111.297 137.54 111.724C135.451 112.151 133.282 111.949 131.307 111.146C129.332 110.342 127.639 108.972 126.442 107.208C125.244 105.444 124.596 103.364 124.578 101.232C124.566 99.8065 124.837 98.3924 125.374 97.0717C125.912 95.751 126.705 94.5498 127.709 93.5373C128.713 92.5249 129.908 91.7213 131.224 91.173C132.54 90.6246 133.952 90.3423 135.378 90.3423ZM69.192 90.3423C71.3242 90.3424 73.4087 90.9736 75.1827 92.1564C76.9568 93.3392 78.341 95.0206 79.161 96.9888C79.981 98.957 80.2001 101.124 79.7906 103.216C79.3811 105.309 78.3614 107.233 76.86 108.747C75.3586 110.261 73.4426 111.297 71.3536 111.724C69.2646 112.151 67.096 111.949 65.121 111.146C63.1461 110.342 61.4532 108.972 60.2557 107.208C59.0583 105.444 58.4098 103.364 58.392 101.232C58.3801 99.8065 58.6507 98.3924 59.1881 97.0717C59.7256 95.751 60.5192 94.5498 61.5233 93.5373C62.5273 92.5249 63.7219 91.7213 65.0381 91.173C66.3544 90.6246 67.7661 90.3423 69.192 90.3423ZM106.002 126.684H100.8V123.498C93.762 123.03 88.2 117.684 88.2 111.186H93.402C93.402 115.146 97.182 118.386 101.844 118.386C106.506 118.386 110.304 115.182 110.304 111.186C110.304 107.19 106.506 103.986 101.844 103.986C98.7448 103.837 95.8129 102.536 93.6223 100.339C91.4316 98.1418 90.1399 95.206 90 92.1063C90.1232 89.1931 91.2764 86.4181 93.2541 84.2755C95.2319 82.1329 97.9059 80.7618 100.8 80.4063V75.7623H106.002V80.4603C108.815 80.8964 111.389 82.2964 113.284 84.4208C115.178 86.5452 116.276 89.262 116.388 92.1063H111.186C111.186 88.3983 107.586 85.3743 103.23 85.3743C98.874 85.3743 95.274 88.3983 95.274 92.1063C95.274 95.8143 98.874 98.8383 103.23 98.8383C110.106 99.4683 115.47 104.742 115.47 111.114C115.376 113.836 114.403 116.454 112.696 118.577C110.989 120.699 108.64 122.211 106.002 122.886V126.684Z" fill="#50B792"/>
<path id="Vector_4" d="M169.398 120.006C165.594 120.554 162.066 122.306 159.329 125.004C156.592 127.702 154.791 131.205 154.188 135L155.358 133.848H169.398V120.006ZM35.6401 82.1703L35.4061 82.4043C39.2017 81.8018 42.7048 80.0003 45.4028 77.2635C48.1008 74.5266 49.852 70.9981 50.4001 67.1943H35.6401V82.1703ZM154.152 67.1943C154.707 71.0409 156.492 74.6046 159.24 77.3526C161.988 80.1007 165.552 81.8855 169.398 82.4403V67.1943H154.152Z" fill="#50B792"/>
<path id="Vector_5" d="M162 61.992V51.84H149.4V41.04H5.40002V118.08H18V128.88H30.6V139.032H174.6V61.992H162ZM35.64 120.276L35.406 120.042C39.1655 120.63 42.6419 122.395 45.3358 125.082C48.0297 127.77 49.8027 131.242 50.4 135L49.23 133.848H35.64V120.276ZM23.04 57.024H156.888V61.992H30.456V123.678H23.112L23.04 57.024ZM10.53 46.224H144.36V51.84H18V112.806H10.602L10.53 46.224ZM169.398 82.44C165.551 81.8852 161.988 80.1004 159.24 77.3523C156.492 74.6043 154.707 71.0406 154.152 67.194H169.398V82.44ZM149.13 133.848H55.53C54.6729 128.989 52.2925 124.529 48.7332 121.112C45.1738 117.695 40.62 115.498 35.73 114.84V87.606C40.8465 86.8995 45.5821 84.5098 49.1901 80.8138C52.798 77.1179 55.0729 72.326 55.656 67.194H148.914C149.507 72.4242 151.855 77.2989 155.575 81.0224C159.296 84.746 164.168 87.0986 169.398 87.696V114.696C164.406 115.274 159.734 117.452 156.081 120.904C152.428 124.356 149.99 128.896 149.13 133.848ZM35.406 82.404L35.64 82.17V67.194H50.4C49.8519 70.9978 48.1007 74.5264 45.4027 77.2632C42.7047 80 39.2016 81.8015 35.406 82.404ZM154.188 135C154.791 131.204 156.592 127.701 159.329 125.003C162.066 122.305 165.594 120.554 169.398 120.006V133.848H155.358L154.188 135Z" fill="#333333"/>
<path id="Vector_6" d="M115.47 111.186C115.47 104.814 110.07 99.5397 103.23 98.9097C98.8379 98.9097 95.274 95.8857 95.274 92.1777C95.274 88.4697 98.8739 85.4457 103.23 85.4457C107.586 85.4457 111.186 88.4697 111.186 92.1777H116.388C116.275 89.3334 115.178 86.6166 113.283 84.4922C111.389 82.3678 108.815 80.9677 106.002 80.5317V75.7617H100.8V80.4057C97.9058 80.7612 95.2318 82.1323 93.2541 84.2749C91.2763 86.4175 90.1231 89.1925 90 92.1057C90.1424 95.1875 91.4233 98.1067 93.5948 100.298C95.7662 102.49 98.6736 103.797 101.754 103.968C106.416 103.968 110.214 107.19 110.214 111.168C110.214 115.146 106.416 118.368 101.754 118.368C97.0919 118.368 93.312 115.164 93.312 111.168H88.2C88.2 117.666 93.78 123.012 100.8 123.48V126.666H106.002V122.958C108.64 122.282 110.989 120.77 112.696 118.648C114.403 116.526 115.376 113.908 115.47 111.186Z" fill="#333333"/>
<path id="Vector_7" d="M69.192 106.92C72.3334 106.92 74.88 104.374 74.88 101.232C74.88 98.0908 72.3334 95.5442 69.192 95.5442C66.0506 95.5442 63.504 98.0908 63.504 101.232C63.504 104.374 66.0506 106.92 69.192 106.92Z" fill="#50B792"/>
<path id="Vector_8" d="M69.192 112.104C71.328 112.104 73.4161 111.47 75.1921 110.284C76.9682 109.097 78.3524 107.41 79.1699 105.437C79.9873 103.463 80.2012 101.292 79.7845 99.1967C79.3677 97.1017 78.3391 95.1773 76.8287 93.6669C75.3183 92.1565 73.3939 91.1279 71.2989 90.7112C69.204 90.2945 67.0324 90.5083 65.059 91.3258C63.0855 92.1432 61.3988 93.5275 60.2121 95.3035C59.0254 97.0796 58.392 99.1676 58.392 101.304C58.392 104.168 59.5298 106.915 61.5552 108.94C63.5806 110.966 66.3276 112.104 69.192 112.104ZM69.192 95.5437C70.3169 95.5437 71.4167 95.8773 72.3521 96.5023C73.2874 97.1273 74.0165 98.0156 74.447 99.055C74.8775 100.094 74.9901 101.238 74.7707 102.341C74.5512 103.445 74.0095 104.458 73.214 105.254C72.4185 106.049 71.405 106.591 70.3016 106.81C69.1983 107.03 68.0546 106.917 67.0153 106.487C65.9759 106.056 65.0876 105.327 64.4626 104.392C63.8376 103.456 63.504 102.357 63.504 101.232C63.504 99.7231 64.1032 98.2764 65.1699 97.2096C66.2367 96.1429 67.6834 95.5437 69.192 95.5437Z" fill="#333333"/>
<path id="Vector_9" d="M135.378 106.92C138.519 106.92 141.066 104.374 141.066 101.232C141.066 98.0908 138.519 95.5442 135.378 95.5442C132.237 95.5442 129.69 98.0908 129.69 101.232C129.69 104.374 132.237 106.92 135.378 106.92Z" fill="#50B792"/>
<path id="Vector_10" d="M135.378 112.104C137.514 112.104 139.602 111.47 141.378 110.284C143.154 109.097 144.538 107.41 145.356 105.437C146.173 103.463 146.387 101.292 145.97 99.1967C145.554 97.1017 144.525 95.1773 143.015 93.6669C141.504 92.1565 139.58 91.1279 137.485 90.7112C135.39 90.2945 133.218 90.5083 131.245 91.3258C129.272 92.1432 127.585 93.5275 126.398 95.3035C125.211 97.0796 124.578 99.1676 124.578 101.304C124.578 104.168 125.716 106.915 127.741 108.94C129.767 110.966 132.514 112.104 135.378 112.104ZM135.378 95.5437C136.503 95.5437 137.603 95.8773 138.538 96.5023C139.473 97.1273 140.203 98.0156 140.633 99.055C141.064 100.094 141.176 101.238 140.957 102.341C140.737 103.445 140.196 104.458 139.4 105.254C138.605 106.049 137.591 106.591 136.488 106.81C135.384 107.03 134.241 106.917 133.201 106.487C132.162 106.056 131.274 105.327 130.649 104.392C130.024 103.456 129.69 102.357 129.69 101.232C129.69 99.7231 130.289 98.2764 131.356 97.2096C132.423 96.1429 133.869 95.5437 135.378 95.5437Z" fill="#333333"/>
<path id="Vector_11" d="M50.4001 135C49.8038 131.244 48.0335 127.774 45.343 125.087C42.6526 122.4 39.1803 120.634 35.4241 120.042L35.6581 120.276V133.848H49.2301L50.4001 135Z" fill="#50B792"/>
</g>
<defs>
<clipPath id="clip0_206_759">
<rect width="180" height="180" fill="white"/>
</clipPath>
</defs>
</svg>
